HIERARCHY
ROOT Hips
{
	OFFSET 0.000000 71.427986 0.000000
	CHANNELS 6 Xposition Yposition Zposition Xrotation Yrotation Zrotation
	JOINT Pelvis
	{
		OFFSET 0.000000 0.000000 0.000000
		CHANNELS 3 Xrotation Yrotation Zrotation
		JOINT LeftUpLeg
		{
			OFFSET 6.797100 -2.508499 -1.318700
			CHANNELS 3 Xrotation Yrotation Zrotation
			JOINT LeftLeg
			{
				OFFSET 0.069008 -29.241863 0.690200
				CHANNELS 3 Xrotation Yrotation Zrotation
				JOINT LeftFoot
				{
					OFFSET -0.069008 -29.568123 -0.266800
					CHANNELS 3 Xrotation Yrotation Zrotation
					JOINT LeftToeBase
					{
						OFFSET 3.145500 -8.631000 16.059900
						CHANNELS 3 Xrotation Yrotation Zrotation
						End Site
						{
							OFFSET 0.000000 18.501587 0.000000
						}
					}
				}
			}
			JOINT Left_ShortSleeve
			{
				OFFSET 0.265923 -10.480953 1.153800
				CHANNELS 3 Xrotation Yrotation Zrotation
				End Site
				{
					OFFSET 1.725763 19.823879 0.000000
				}
			}
		}
		JOINT RightUpLeg
		{
			OFFSET -6.797100 -2.508499 -1.318700
			CHANNELS 3 Xrotation Yrotation Zrotation
			JOINT RightLeg
			{
				OFFSET -0.082453 -29.241932 0.688000
				CHANNELS 3 Xrotation Yrotation Zrotation
				JOINT RightFoot
				{
					OFFSET 0.082453 -29.568058 -0.264600
					CHANNELS 3 Xrotation Yrotation Zrotation
					JOINT RightToeBase
					{
						OFFSET -3.115300 -8.682800 16.113400
						CHANNELS 3 Xrotation Yrotation Zrotation
						End Site
						{
							OFFSET 0.000000 18.567114 0.000000
						}
					}
				}
			}
			JOINT Right_ShortSleeve
			{
				OFFSET -0.265923 -10.480953 1.153800
				CHANNELS 3 Xrotation Yrotation Zrotation
				End Site
				{
					OFFSET -1.725766 19.823910 0.000000
				}
			}
		}
	}
	JOINT Spine
	{
		OFFSET 0.000000 13.368103 0.470500
		CHANNELS 3 Xrotation Yrotation Zrotation
		JOINT Spine1
		{
			OFFSET 0.147000 13.837402 0.538800
			CHANNELS 3 Xrotation Yrotation Zrotation
			JOINT Spine2
			{
				OFFSET 0.168000 16.242897 -1.435500
				CHANNELS 3 Xrotation Yrotation Zrotation
				JOINT Neck
				{
					OFFSET 0.217200 18.631500 -1.679100
					CHANNELS 3 Xrotation Yrotation Zrotation
					JOINT Head
					{
						OFFSET 0.000000 6.599396 1.385900
						CHANNELS 3 Xrotation Yrotation Zrotation
						JOINT Hat
						{
							OFFSET -0.532200 27.220596 -10.096100
							CHANNELS 3 Xrotation Yrotation Zrotation
							End Site
							{
								OFFSET 0.000000 22.029861 0.000000
							}
						}
						JOINT HairD
						{
							OFFSET -10.777400 17.437393 -1.325900
							CHANNELS 3 Xrotation Yrotation Zrotation
							JOINT HairD1
							{
								OFFSET -3.290299 -11.051193 1.062200
								CHANNELS 3 Xrotation Yrotation Zrotation
								End Site
								{
									OFFSET 0.000000 11.579437 0.000000
								}
							}
						}
						JOINT HairB
						{
							OFFSET -10.777400 17.437393 1.467900
							CHANNELS 3 Xrotation Yrotation Zrotation
							JOINT HairB1
							{
								OFFSET -1.561200 -12.956299 3.590200
								CHANNELS 3 Xrotation Yrotation Zrotation
								End Site
								{
									OFFSET 0.000000 13.534866 0.000000
								}
							}
						}
						JOINT HairA
						{
							OFFSET 9.713100 17.437393 1.467900
							CHANNELS 3 Xrotation Yrotation Zrotation
							JOINT HairA1
							{
								OFFSET 1.561200 -12.956299 3.590200
								CHANNELS 3 Xrotation Yrotation Zrotation
								End Site
								{
									OFFSET 0.000000 13.534866 0.000000
								}
							}
						}
						JOINT HairC
						{
							OFFSET 9.713100 17.437393 -1.325900
							CHANNELS 3 Xrotation Yrotation Zrotation
							JOINT HairC1
							{
								OFFSET 3.290300 -11.051193 1.062200
								CHANNELS 3 Xrotation Yrotation Zrotation
								End Site
								{
									OFFSET 0.000000 11.579437 0.000000
								}
							}
						}
					}
				}
				JOINT LeftShoulder
				{
					OFFSET 5.101800 15.108002 -2.763700
					CHANNELS 3 Xrotation Yrotation Zrotation
					JOINT LeftArm
					{
						OFFSET 9.825497 2.506317 -1.597400
						CHANNELS 3 Xrotation Yrotation Zrotation
						JOINT LeftForeArm
						{
							OFFSET 21.966244 0.000000 0.000000
							CHANNELS 3 Xrotation Yrotation Zrotation
							JOINT LeftHand
							{
								OFFSET 33.879036 0.000000 0.000000
								CHANNELS 3 Xrotation Yrotation Zrotation
								JOINT LeftHandThumb1
								{
									OFFSET 6.715286 -2.359680 3.363841
									CHANNELS 3 Xrotation Yrotation Zrotation
									JOINT LeftHandThumb2
									{
										OFFSET 2.507072 -1.447464 1.447461
										CHANNELS 3 Xrotation Yrotation Zrotation
										JOINT LeftHandThumb3
										{
											OFFSET 2.898338 -1.673355 1.673357
											CHANNELS 3 Xrotation Yrotation Zrotation
											End Site
											{
												OFFSET -0.295959 3.727692 -0.131651
											}
										}
									}
								}
								JOINT LeftHandIndex1
								{
									OFFSET 14.190811 -0.254547 3.840278
									CHANNELS 3 Xrotation Yrotation Zrotation
									JOINT LeftHandIndex2
									{
										OFFSET 3.551727 0.000000 -0.000000
										CHANNELS 3 Xrotation Yrotation Zrotation
										JOINT LeftHandIndex3
										{
											OFFSET 2.894196 0.000000 0.000000
											CHANNELS 3 Xrotation Yrotation Zrotation
											End Site
											{
												OFFSET -1.000603 2.690872 0.366626
											}
										}
									}
								}
								JOINT LeftHandMiddle1
								{
									OFFSET 13.776489 0.000000 0.000000
									CHANNELS 3 Xrotation Yrotation Zrotation
									JOINT LeftHandMiddle2
									{
										OFFSET 3.438232 0.000000 0.000000
										CHANNELS 3 Xrotation Yrotation Zrotation
										JOINT LeftHandMiddle3
										{
											OFFSET 3.691551 0.000000 0.000000
											CHANNELS 3 Xrotation Yrotation Zrotation
											End Site
											{
												OFFSET -1.082298 3.499527 0.457670
											}
										}
									}
								}
								JOINT LeftHandRing1
								{
									OFFSET 13.966164 -0.268127 -3.067488
									CHANNELS 3 Xrotation Yrotation Zrotation
									JOINT LeftHandRing2
									{
										OFFSET 3.162567 0.000000 0.000000
										CHANNELS 3 Xrotation Yrotation Zrotation
										JOINT LeftHandRing3
										{
											OFFSET 3.324348 0.000000 0.000000
											CHANNELS 3 Xrotation Yrotation Zrotation
											End Site
											{
												OFFSET -0.861900 3.184998 0.405154
											}
										}
									}
								}
								JOINT LeftHandPinky1
								{
									OFFSET 13.131393 -0.168503 -5.746925
									CHANNELS 3 Xrotation Yrotation Zrotation
									JOINT LeftHandPinky2
									{
										OFFSET 2.849182 0.000000 0.000000
										CHANNELS 3 Xrotation Yrotation Zrotation
										JOINT LeftHandPinky3
										{
											OFFSET 2.805038 0.000000 0.000000
											CHANNELS 3 Xrotation Yrotation Zrotation
											End Site
											{
												OFFSET -0.882500 2.642609 0.325652
											}
										}
									}
								}
							}
							JOINT Left_Sleeve
							{
								OFFSET 6.592125 -0.646545 0.805568
								CHANNELS 3 Xrotation Yrotation Zrotation
								End Site
								{
									OFFSET -0.000179 20.275787 -0.000000
								}
							}
						}
					}
				}
				JOINT RightShoulder
				{
					OFFSET -5.731700 15.108002 -2.763700
					CHANNELS 3 Xrotation Yrotation Zrotation
					JOINT RightArm
					{
						OFFSET -9.825497 2.506317 -1.597400
						CHANNELS 3 Xrotation Yrotation Zrotation
						JOINT RightForeArm
						{
							OFFSET -21.966242 0.000000 0.000000
							CHANNELS 3 Xrotation Yrotation Zrotation
							JOINT RightHand
							{
								OFFSET -33.879032 0.000000 0.000000
								CHANNELS 3 Xrotation Yrotation Zrotation
								JOINT RightHandThumb1
								{
									OFFSET -6.715286 -2.359680 3.363841
									CHANNELS 3 Xrotation Yrotation Zrotation
									JOINT RightHandThumb2
									{
										OFFSET -2.507072 -1.447464 1.447461
										CHANNELS 3 Xrotation Yrotation Zrotation
										JOINT RightHandThumb3
										{
											OFFSET -2.898338 -1.673355 1.673357
											CHANNELS 3 Xrotation Yrotation Zrotation
											End Site
											{
												OFFSET 0.295959 3.727692 -0.131651
											}
										}
									}
								}
								JOINT RightHandIndex1
								{
									OFFSET -14.190811 -0.254547 3.840278
									CHANNELS 3 Xrotation Yrotation Zrotation
									JOINT RightHandIndex2
									{
										OFFSET -3.551727 0.000000 -0.000000
										CHANNELS 3 Xrotation Yrotation Zrotation
										JOINT RightHandIndex3
										{
											OFFSET -2.894196 0.000000 0.000000
											CHANNELS 3 Xrotation Yrotation Zrotation
											End Site
											{
												OFFSET 1.000603 2.690872 0.366626
											}
										}
									}
								}
								JOINT RightHandMiddle1
								{
									OFFSET -13.776489 0.000000 0.000000
									CHANNELS 3 Xrotation Yrotation Zrotation
									JOINT RightHandMiddle2
									{
										OFFSET -3.438232 0.000000 0.000000
										CHANNELS 3 Xrotation Yrotation Zrotation
										JOINT RightHandMiddle3
										{
											OFFSET -3.691551 0.000000 0.000000
											CHANNELS 3 Xrotation Yrotation Zrotation
											End Site
											{
												OFFSET 1.082298 3.499527 0.457670
											}
										}
									}
								}
								JOINT RightHandRing1
								{
									OFFSET -13.966164 -0.268127 -3.067488
									CHANNELS 3 Xrotation Yrotation Zrotation
									JOINT RightHandRing2
									{
										OFFSET -3.162567 0.000000 0.000000
										CHANNELS 3 Xrotation Yrotation Zrotation
										JOINT RightHandRing3
										{
											OFFSET -3.324348 0.000000 0.000000
											CHANNELS 3 Xrotation Yrotation Zrotation
											End Site
											{
												OFFSET 0.861900 3.184998 0.405154
											}
										}
									}
								}
								JOINT RightHandPinky1
								{
									OFFSET -13.131393 -0.168503 -5.746925
									CHANNELS 3 Xrotation Yrotation Zrotation
									JOINT RightHandPinky2
									{
										OFFSET -2.849182 0.000000 0.000000
										CHANNELS 3 Xrotation Yrotation Zrotation
										JOINT RightHandPinky3
										{
											OFFSET -2.805038 0.000000 0.000000
											CHANNELS 3 Xrotation Yrotation Zrotation
											End Site
											{
												OFFSET 0.882500 2.642609 0.325652
											}
										}
									}
								}
							}
							JOINT Right_Sleeve
							{
								OFFSET -6.592125 -0.646545 0.805568
								CHANNELS 3 Xrotation Yrotation Zrotation
								End Site
								{
									OFFSET 0.000179 20.275787 -0.000000
								}
							}
						}
					}
				}
				JOINT Bind_Right_JacketString
				{
					OFFSET -3.534800 11.969597 7.200700
					CHANNELS 3 Xrotation Yrotation Zrotation
					JOINT Bind_Right_JacketString1
					{
						OFFSET -0.319900 -6.102600 2.794100
						CHANNELS 3 Xrotation Yrotation Zrotation
						End Site
						{
							OFFSET 0.000000 6.719452 0.000000
						}
					}
				}
				JOINT Bind_Left_JacketString
				{
					OFFSET 2.904800 11.969597 7.200700
					CHANNELS 3 Xrotation Yrotation Zrotation
					JOINT Bind_Left_JacketString1
					{
						OFFSET 0.364800 -5.904503 3.186800
						CHANNELS 3 Xrotation Yrotation Zrotation
						End Site
						{
							OFFSET 0.000000 6.719513 0.000000
						}
					}
				}
				JOINT HairE
				{
					OFFSET 5.915200 17.612701 -11.592200
					CHANNELS 3 Xrotation Yrotation Zrotation
					JOINT HairE1
					{
						OFFSET 0.289200 -7.171898 -1.284500
						CHANNELS 3 Xrotation Yrotation Zrotation
						End Site
						{
							OFFSET 0.000000 7.291756 0.000000
						}
					}
				}
				JOINT HairF
				{
					OFFSET -0.864800 17.612701 -11.592200
					CHANNELS 3 Xrotation Yrotation Zrotation
					JOINT HairF1
					{
						OFFSET 0.000000 -14.087097 -2.127501
						CHANNELS 3 Xrotation Yrotation Zrotation
						End Site
						{
							OFFSET 0.000000 14.246841 0.000000
						}
					}
				}
				JOINT HairG
				{
					OFFSET -8.087700 17.612701 -11.592200
					CHANNELS 3 Xrotation Yrotation Zrotation
					JOINT HairG1
					{
						OFFSET -0.293600 -6.081398 -0.910100
						CHANNELS 3 Xrotation Yrotation Zrotation
						End Site
						{
							OFFSET 0.000000 6.156120 0.000000
						}
					}
				}
			}
		}
	}
	JOINT Pouch
	{
		OFFSET 0.000000 4.394501 10.847300
		CHANNELS 3 Xrotation Yrotation Zrotation
		End Site
		{
			OFFSET 0.000000 21.880577 0.000000
		}
	}
	JOINT Bag
	{
		OFFSET -13.229000 4.813004 -0.593300
		CHANNELS 3 Xrotation Yrotation Zrotation
		End Site
		{
			OFFSET 0.000000 21.880577 0.000000
		}
	}
	JOINT OccupyGuyFacialAnim_Joint
	{
		OFFSET 1.000000 -70.206398 -1.655000
		CHANNELS 3 Xrotation Yrotation Zrotation
		End Site
		{
			OFFSET 0.000000 21.880577 0.000000
		}
	}
}
MOTION
Frames: 4
Frame Time: 0.033333
-0.755099 64.321693 1.133085 9.024673 -35.304312 2.279572 -0.000000 -0.000000 -0.000000 -44.278788 5.430193 21.710190 41.198779 -5.089664 -2.215979 -4.886153 0.744560 -8.642398 0.000000 -0.000000 0.000000 0.000004 -0.000001 0.000000 -17.479306 -11.891003 -18.426351 45.234444 -8.639673 -2.930009 -19.864301 -5.133199 23.268906 -0.000000 0.000001 0.000000 0.000000 -0.000001 -0.000000 4.115328 4.146616 4.478323 2.233273 1.587558 0.858632 2.198822 1.664029 0.806471 -1.931059 3.698802 -0.657390 5.163189 18.708286 -7.416193 0.000001 -0.000000 -0.000000 0.000001 -0.000000 -0.000000 0.000001 -0.000000 -0.000000 0.000001 -0.000000 -0.000000 0.000001 -0.000000 -0.000000 0.000001 -0.000000 -0.000000 0.000001 -0.000000 -0.000000 0.000001 -0.000000 -0.000000 0.000001 -0.000000 -0.000000 8.613670 -11.683309 -2.877903 -49.469233 -2.025008 -44.037628 0.000138 -105.933468 0.000145 14.671279 1.390728 4.508989 -10.355847 -18.164548 -0.612236 10.166228 44.439198 3.473539 -0.000001 0.000002 0.000001 -1.623584 2.464341 -39.970110 4.432905 5.677158 -75.949873 -0.000001 0.000001 -0.000000 2.431946 7.055170 -53.394082 4.432917 5.677176 -75.949880 0.000002 0.000003 -0.000001 6.551723 9.294108 -62.102792 5.321227 5.827118 -84.795412 -0.000001 0.000002 0.000000 14.702295 10.907178 -74.390309 5.247216 5.819929 -84.066057 -0.000001 0.000000 -0.000001 0.000001 0.000001 -0.000002 4.720333 14.116954 -1.053492 -49.095840 29.802721 70.950243 0.000147 111.731895 -0.000174 2.263157 10.552560 0.344784 -11.269550 20.282846 1.210513 10.083127 -46.337731 -3.955804 -0.000000 0.000000 -0.000001 -1.909773 -1.536838 39.260047 3.529743 -4.518921 75.975705 0.000000 -0.000001 0.000000 1.887738 -5.985915 52.719833 3.529758 -4.518939 75.975746 0.000001 0.000000 0.000001 5.826221 -8.180305 61.423092 4.235971 -4.638154 84.805343 0.000002 -0.000001 -0.000000 13.716892 -9.803663 73.678890 4.177140 -4.632426 84.077320 -0.000000 -0.000000 -0.000001 0.000002 0.000003 -0.000001 -0.000000 -0.000001 0.000000 -0.000000 -0.000001 0.000001 -0.000000 -0.000001 0.000000 -0.000000 -0.000001 0.000000 -0.000000 -0.000001 0.000000 -0.000000 -0.000001 0.000001 -0.000000 -0.000001 0.000000 -0.000000 -0.000001 0.000000 -0.000000 -0.000001 0.000000 -0.000000 -0.000001 0.000001 -0.000000 -0.000000 -0.000000 -0.000000 -0.000000 -0.000000 -0.000000 -0.000000 -0.000000 
-0.763617 64.610046 1.395807 8.745161 -38.412871 2.618406 -0.000000 0.000001 -0.000000 -42.138654 5.614554 22.310680 40.843872 -2.160764 -2.644478 -5.494985 0.737624 -9.398742 0.000000 -0.000000 0.000000 -0.000003 -0.000001 -0.000001 -17.698253 -11.740720 -19.007389 43.927330 -5.797168 -3.660824 -19.129599 -4.859169 22.462899 0.000000 0.000000 0.000000 0.000000 -0.000004 -0.000002 4.020496 3.954295 4.381184 2.153174 1.368028 0.823589 2.122697 1.443964 0.777438 -2.102931 4.130880 -0.377723 5.450725 21.114893 -8.173063 -0.000000 0.000000 0.000000 -0.000000 0.000000 0.000000 -0.000000 0.000000 0.000000 -0.000000 0.000000 -0.000000 -0.000000 -0.000000 0.000000 -0.000000 0.000000 -0.000000 -0.000000 -0.000000 0.000000 -0.000000 0.000000 0.000000 -0.000000 0.000000 0.000000 8.624986 -11.490500 -2.776343 -45.563854 -3.138698 -41.212433 -0.000417 -98.276703 -0.000407 13.844027 2.107273 5.167354 -7.126437 -16.128305 1.653691 9.792668 41.695057 3.375473 -0.000001 0.000001 -0.000001 -2.267451 0.730047 -34.337403 3.836552 5.494442 -69.828821 0.000002 0.000003 0.000000 1.936374 6.645809 -47.085999 3.845240 5.497619 -69.919451 0.000001 0.000003 -0.000001 6.448823 9.711681 -56.388116 4.613016 5.719028 -77.763575 0.000001 0.000003 -0.000000 14.539676 13.728317 -69.785648 4.568947 5.709359 -77.321054 -0.000000 0.000001 0.000001 0.000001 -0.000002 0.000001 4.700294 14.065768 -0.877199 -43.922037 32.862373 66.568062 -0.000030 111.048228 0.000023 4.543799 11.081926 -2.365837 -10.297454 17.927098 0.065765 9.749989 -43.615426 -3.875428 -0.000000 0.000000 -0.000000 -1.310732 -0.607563 38.503713 3.457029 -4.500195 75.050959 -0.000000 -0.000000 0.000002 1.866470 -5.969711 52.390467 3.462061 -4.501536 75.115040 0.000003 0.000001 -0.000001 5.976757 -8.239921 61.706340 4.102720 -4.624130 83.154937 0.000002 -0.000001 0.000001 12.770844 -11.108069 73.950342 4.045136 -4.616862 82.440014 -0.000000 0.000003 0.000001 0.000001 -0.000002 0.000002 0.000000 0.000002 -0.000000 0.000001 0.000000 -0.000000 0.000000 0.000002 -0.000000 0.000000 0.000002 -0.000000 0.000000 0.000002 -0.000000 0.000001 0.000000 -0.000000 0.000000 0.000002 -0.000000 0.000000 0.000002 -0.000000 0.000000 0.000002 -0.000000 0.000001 0.000000 -0.000000 -0.000000 0.000001 -0.000000 -0.000000 0.000001 -0.000000 -0.000000 0.000001 -0.000000 
-0.651691 64.999222 1.927680 8.774481 -42.676648 3.314187 0.000000 0.000001 -0.000000 -39.510247 6.013603 22.725347 40.594427 1.731900 -3.118869 -6.442764 0.993698 -10.318479 -0.000000 -0.000000 0.000000 -0.000004 -0.000003 0.000001 -17.952647 -11.236965 -19.367601 41.592577 -2.486569 -5.246844 -17.643750 -4.560430 22.145225 0.000000 -0.000001 0.000000 -0.000002 -0.000001 0.000001 3.867766 3.569284 4.091935 2.132431 1.020670 0.724604 2.108668 1.095847 0.689060 -2.124080 4.729514 0.075005 5.971833 24.328345 -9.502377 -0.000000 0.000001 -0.000000 -0.000000 0.000001 -0.000000 -0.000000 0.000001 -0.000000 -0.000000 0.000001 -0.000000 -0.000000 -0.000000 0.000000 -0.000000 0.000001 -0.000000 -0.000000 -0.000000 0.000000 -0.000000 0.000001 -0.000000 -0.000000 0.000001 -0.000000 8.646577 -11.305907 -2.616280 -40.515600 -4.666145 -38.258594 -0.005458 -87.917143 -0.005437 12.220201 3.007492 6.363725 -0.872099 -11.661652 4.995670 9.059416 36.130604 3.119687 -0.000001 0.000004 -0.000000 -2.606858 -2.911036 -22.878164 2.705347 4.935972 -57.432301 0.000000 0.000002 -0.000001 1.086153 5.663102 -34.319242 2.728561 4.950665 -57.701493 0.000002 0.000001 -0.000001 5.842094 10.556430 -44.719755 3.245799 5.240847 -63.519940 -0.000005 -0.000001 -0.000002 12.582875 19.323712 -59.732620 3.257899 5.246848 -63.652261 -0.000000 -0.000002 0.000001 0.000000 -0.000001 -0.000002 4.679091 13.960910 -0.655956 -35.787999 36.670446 60.124256 0.000092 108.361019 -0.000105 7.673536 11.584196 -7.486055 -8.484919 13.096117 -2.046856 9.099399 -38.094823 -3.660400 -0.000002 0.000000 -0.000000 -0.030520 1.288077 36.631445 3.290314 -4.452471 72.915159 -0.000001 -0.000001 0.000000 1.807766 -5.923981 51.474153 3.305661 -4.457148 73.112544 0.000001 -0.000000 -0.000001 6.280890 -8.372986 62.066209 3.809974 -4.579623 79.507459 -0.000001 -0.000002 0.000001 10.880916 -13.884029 74.338693 3.755004 -4.569150 78.818184 -0.000001 0.000003 -0.000001 0.000004 -0.000002 0.000004 0.000000 0.000000 -0.000000 0.000001 0.000000 -0.000000 0.000000 0.000000 -0.000000 0.000000 0.000000 -0.000000 0.000000 0.000000 -0.000000 0.000001 0.000000 -0.000000 0.000000 0.000000 -0.000000 0.000000 0.000000 -0.000000 0.000000 0.000000 -0.000000 0.000001 0.000000 -0.000000 0.000000 0.000001 -0.000000 0.000000 0.000001 -0.000000 0.000000 0.000001 -0.000000 
-0.448809 65.467461 2.666088 9.155248 -47.882095 4.421497 0.000000 0.000001 -0.000000 -36.479340 6.746556 22.704770 40.217899 5.400277 -3.428939 -7.484316 2.519795 -11.328613 -0.000000 -0.000002 0.000000 0.000000 0.000003 0.000002 -19.382453 -10.318204 -19.426786 40.088446 -4.249593 -6.658110 -14.890707 -4.314246 20.924925 0.000001 0.000001 0.000000 -0.000000 -0.000000 -0.000001 3.669057 3.036530 3.617575 2.192012 0.609214 0.576299 2.177138 0.684018 0.556224 -2.008088 5.477888 0.640683 6.792780 28.140921 -11.465810 0.000001 0.000000 0.000000 0.000001 0.000000 0.000000 0.000001 0.000000 0.000000 0.000001 0.000000 -0.000000 0.000001 0.000001 -0.000000 0.000001 0.000000 -0.000000 0.000001 0.000001 -0.000000 0.000001 0.000000 0.000000 0.000001 0.000000 0.000000 8.669987 -11.109781 -2.435344 -34.155847 -6.162618 -35.028816 -0.000181 -75.382312 -0.000165 9.806133 3.937023 8.406348 6.297373 -5.798245 7.926182 8.188615 29.368123 2.719473 -0.000000 0.000001 -0.000001 -1.371284 -7.291942 -8.815909 1.533449 3.952555 -42.395824 0.000003 0.000001 -0.000004 0.378877 4.254777 -18.843792 1.566762 3.988640 -42.876875 0.000003 0.000000 -0.000001 4.531368 11.471992 -30.424623 1.808326 4.233346 -46.245821 -0.000002 0.000002 -0.000002 7.367907 25.278870 -46.315946 1.869362 4.290784 -47.066916 -0.000002 0.000000 0.000003 -0.000002 0.000002 0.000002 4.659051 13.823520 -0.416714 -24.522785 40.038258 51.553062 0.000189 103.914962 -0.000211 11.574747 11.757757 -14.600006 -6.580287 7.142465 -4.390130 8.331707 -31.384531 -3.318737 0.000001 -0.000001 0.000000 1.757430 3.632213 33.713387 3.049193 -4.371342 69.781570 -0.000000 0.000001 -0.000001 1.708096 -5.842794 49.890861 3.077466 -4.381605 70.151773 0.000004 -0.000002 0.000001 6.660193 -8.566819 62.142250 3.406690 -4.486509 74.408047 -0.000001 -0.000005 0.000001 8.505701 -17.518054 74.394448 3.355758 -4.472020 73.756071 0.000001 0.000001 0.000004 0.000001 0.000001 0.000001 0.000001 -0.000001 0.000000 0.000002 -0.000001 0.000000 0.000001 -0.000001 0.000000 0.000001 -0.000001 0.000000 0.000001 -0.000001 0.000000 0.000002 -0.000001 0.000000 0.000001 -0.000001 0.000000 0.000001 -0.000001 0.000000 0.000001 -0.000001 0.000000 0.000002 -0.000001 0.000000 0.000000 0.000001 -0.000000 0.000000 0.000001 -0.000000 0.000000 0.000001 -0.000000 
